<svg width="28" height="28" viewBox="0 0 28 28" fill="none" xmlns="http://www.w3.org/2000/svg">
<mask id="mask0_56_2256" style="mask-type:alpha" maskUnits="userSpaceOnUse" x="0" y="0" width="28" height="28">
<rect width="28" height="28" fill="#D9D9D9"/>
</mask>
<g mask="url(#mask0_56_2256)">
<path d="M13.9775 25.0832C12.4654 25.0832 11.037 24.7919 9.69238 24.2093C8.3476 23.6268 7.17345 22.8336 6.16992 21.8299C5.1662 20.8264 4.37306 19.6504 3.79051 18.3019C3.20795 16.9534 2.91667 15.5194 2.91667 13.9998C2.91667 12.4608 3.21582 11.0171 3.81413 9.66859C4.41244 8.32011 5.22502 7.14713 6.25188 6.14963C7.27855 5.15193 8.47963 4.36366 9.85513 3.7848C11.2304 3.20594 12.6973 2.9165 14.2558 2.9165C15.7141 2.9165 17.0961 3.1652 18.4018 3.66259C19.7077 4.15998 20.8546 4.84841 21.8423 5.72788C22.8303 6.60735 23.6174 7.65249 24.2037 8.8633C24.7901 10.0739 25.0833 11.3867 25.0833 12.8017C25.0833 14.821 24.4832 16.4004 23.2829 17.5401C22.0826 18.6799 20.5438 19.2498 18.6667 19.2498H16.5533C16.2211 19.2498 15.9556 19.3582 15.7567 19.575C15.5578 19.792 15.4583 20.0486 15.4583 20.3448C15.4583 20.7053 15.6042 21.0799 15.8958 21.4688C16.1875 21.8577 16.3333 22.3042 16.3333 22.8082C16.3333 23.5784 16.1202 24.1501 15.694 24.5235C15.2676 24.8966 14.6954 25.0832 13.9775 25.0832ZM7.58334 14.8748C7.99906 14.8748 8.34605 14.7357 8.6243 14.4575C8.90255 14.1792 9.04167 13.8322 9.04167 13.4165C9.04167 13.0008 8.90255 12.6538 8.6243 12.3755C8.34605 12.0973 7.99906 11.9582 7.58334 11.9582C7.16762 11.9582 6.82063 12.0973 6.54238 12.3755C6.26413 12.6538 6.12501 13.0008 6.12501 13.4165C6.12501 13.8322 6.26413 14.1792 6.54238 14.4575C6.82063 14.7357 7.16762 14.8748 7.58334 14.8748ZM11.0833 10.2082C11.4991 10.2082 11.846 10.069 12.1243 9.7908C12.4025 9.51255 12.5417 9.16556 12.5417 8.74984C12.5417 8.33412 12.4025 7.98713 12.1243 7.70888C11.846 7.43063 11.4991 7.2915 11.0833 7.2915C10.6676 7.2915 10.3206 7.43063 10.0424 7.70888C9.76413 7.98713 9.625 8.33412 9.625 8.74984C9.625 9.16556 9.76413 9.51255 10.0424 9.7908C10.3206 10.069 10.6676 10.2082 11.0833 10.2082ZM16.9167 10.2082C17.3324 10.2082 17.6794 10.069 17.9576 9.7908C18.2359 9.51255 18.375 9.16556 18.375 8.74984C18.375 8.33412 18.2359 7.98713 17.9576 7.70888C17.6794 7.43063 17.3324 7.2915 16.9167 7.2915C16.5009 7.2915 16.154 7.43063 15.8757 7.70888C15.5975 7.98713 15.4583 8.33412 15.4583 8.74984C15.4583 9.16556 15.5975 9.51255 15.8757 9.7908C16.154 10.069 16.5009 10.2082 16.9167 10.2082ZM20.4167 14.8748C20.8324 14.8748 21.1794 14.7357 21.4576 14.4575C21.7359 14.1792 21.875 13.8322 21.875 13.4165C21.875 13.0008 21.7359 12.6538 21.4576 12.3755C21.1794 12.0973 20.8324 11.9582 20.4167 11.9582C20.0009 11.9582 19.654 12.0973 19.3757 12.3755C19.0975 12.6538 18.9583 13.0008 18.9583 13.4165C18.9583 13.8322 19.0975 14.1792 19.3757 14.4575C19.654 14.7357 20.0009 14.8748 20.4167 14.8748Z" fill="#FCFFDC"/>
</g>
</svg>
