<svg width="28" height="28" viewBox="0 0 28 28" fill="none" xmlns="http://www.w3.org/2000/svg">
<mask id="mask0_56_2207" style="mask-type:alpha" maskUnits="userSpaceOnUse" x="0" y="0" width="28" height="28">
<rect width="28" height="28" fill="#D9D9D9"/>
</mask>
<g mask="url(#mask0_56_2207)">
<path d="M12.775 18.9043L18.9627 12.7166L17.7152 11.4692L12.775 16.4097L10.2847 13.9192L9.03729 15.1666L12.775 18.9043ZM14 25.0833C12.6239 25.0833 11.3347 24.823 10.1322 24.3025C8.92957 23.782 7.88102 23.0745 6.98658 22.18C6.09214 21.2856 5.38465 20.2371 4.86412 19.0344C4.34359 17.832 4.08333 16.5427 4.08333 15.1666C4.08333 13.7905 4.34359 12.5013 4.86412 11.2988C5.38465 10.0962 6.09214 9.04765 6.98658 8.15321C7.88102 7.25876 8.92957 6.55128 10.1322 6.03075C11.3347 5.51022 12.6239 5.24996 14 5.24996C15.3761 5.24996 16.6653 5.51022 17.8678 6.03075C19.0704 6.55128 20.119 7.25876 21.0134 8.15321C21.9079 9.04765 22.6153 10.0962 23.1359 11.2988C23.6564 12.5013 23.9167 13.7905 23.9167 15.1666C23.9167 16.5427 23.6564 17.832 23.1359 19.0344C22.6153 20.2371 21.9079 21.2856 21.0134 22.18C20.119 23.0745 19.0704 23.782 17.8678 24.3025C16.6653 24.823 15.3761 25.0833 14 25.0833ZM6.7127 3.36987L7.94237 4.59925L3.43262 9.109L2.20325 7.87933L6.7127 3.36987ZM21.2873 3.36987L25.7967 7.87933L24.5674 9.109L20.0576 4.59925L21.2873 3.36987Z" fill="#CBCBE5"/>
</g>
</svg>
