<svg width="28" height="28" viewBox="0 0 28 28" fill="none" xmlns="http://www.w3.org/2000/svg">
<mask id="mask0_56_2305" style="mask-type:alpha" maskUnits="userSpaceOnUse" x="0" y="0" width="28" height="28">
<rect width="28" height="28" fill="#D9D9D9"/>
</mask>
<g mask="url(#mask0_56_2305)">
<path d="M14 16.9167C14.8151 16.9167 15.505 16.6344 16.0697 16.0697C16.6344 15.5051 16.9167 14.8152 16.9167 14.0001C16.9167 13.185 16.6344 12.4951 16.0697 11.9304C15.505 11.3657 14.8151 11.0834 14 11.0834C13.1849 11.0834 12.495 11.3657 11.9304 11.9304C11.3657 12.4951 11.0834 13.185 11.0834 14.0001C11.0834 14.8152 11.3657 15.5051 11.9304 16.0697C12.495 16.6344 13.1849 16.9167 14 16.9167ZM14.0021 25.0834C12.4691 25.0834 11.0281 24.7925 9.67927 24.2107C8.33041 23.629 7.15713 22.8394 6.15944 21.8421C5.16174 20.8448 4.37181 19.672 3.78965 18.3237C3.20767 16.9755 2.91669 15.5349 2.91669 14.0021C2.91669 12.4691 3.20758 11.0282 3.78935 9.67933C4.37113 8.33047 5.16067 7.15719 6.15798 6.1595C7.15528 5.1618 8.32808 4.37187 9.67635 3.78971C11.0246 3.20773 12.4652 2.91675 13.998 2.91675C15.531 2.91675 16.9719 3.20764 18.3208 3.78941C19.6696 4.37119 20.8429 5.16073 21.8406 6.15804C22.8383 7.15535 23.6282 8.32814 24.2104 9.67641C24.7924 11.0247 25.0834 12.4652 25.0834 13.998C25.0834 15.531 24.7925 16.972 24.2107 18.3208C23.6289 19.6697 22.8394 20.843 21.8421 21.8407C20.8448 22.8384 19.672 23.6283 18.3237 24.2105C16.9754 24.7924 15.5349 25.0834 14.0021 25.0834Z" fill="#FA6F60"/>
</g>
</svg>
