<svg width="28" height="28" viewBox="0 0 28 28" fill="none" xmlns="http://www.w3.org/2000/svg">
<mask id="mask0_56_2179" style="mask-type:alpha" maskUnits="userSpaceOnUse" x="0" y="0" width="28" height="28">
<rect width="28" height="28" fill="#D9D9D9"/>
</mask>
<g mask="url(#mask0_56_2179)">
<path d="M14.002 25.0834C12.469 25.0834 11.0281 24.7925 9.67925 24.2107C8.33039 23.629 7.15712 22.8394 6.15942 21.8421C5.16173 20.8448 4.3718 19.672 3.78963 18.3237C3.20766 16.9755 2.91667 15.5349 2.91667 14.0021C2.91667 12.4691 3.20756 11.0282 3.78934 9.67933C4.37112 8.33047 5.16066 7.15719 6.15796 6.1595C7.15527 5.1618 8.32806 4.37187 9.67634 3.78971C11.0246 3.20773 12.4652 2.91675 13.998 2.91675C15.531 2.91675 16.9719 3.20764 18.3208 3.78941C19.6696 4.37119 20.8429 5.16073 21.8406 6.15804C22.8383 7.15535 23.6282 8.32814 24.2104 9.67641C24.7924 11.0247 25.0833 12.4652 25.0833 13.998C25.0833 15.531 24.7924 16.972 24.2107 18.3208C23.6289 19.6697 22.8394 20.843 21.842 21.8407C20.8447 22.8384 19.6719 23.6283 18.3237 24.2105C16.9754 24.7924 15.5349 25.0834 14.002 25.0834ZM10.5674 19.5193H17.4326V17.7693H14.875V10.0066H17.4326V8.25658H10.5674V10.0066H13.125V17.7693H10.5674V19.5193Z" fill="#5B5B81"/>
</g>
</svg>
