<svg width="212" height="32" viewBox="0 0 212 32" fill="none" xmlns="http://www.w3.org/2000/svg">
<g clip-path="url(#clip0_49_2134)">
<mask id="mask0_49_2134" style="mask-type:alpha" maskUnits="userSpaceOnUse" x="0" y="0" width="90" height="90">
<rect width="90" height="90" fill="#D9D9D9"/>
</mask>
<g mask="url(#mask0_49_2134)">
<path d="M10.1343 25.6759C10.4973 25.6759 10.7634 25.5547 10.9326 25.3121C11.1022 25.0695 11.2097 24.7789 11.2552 24.4402C11.3113 24.0841 11.3578 23.7252 11.3945 23.3633C11.431 23.0015 11.472 22.6301 11.5175 22.2492C11.5627 21.9197 11.615 21.5751 11.6745 21.2153C11.7338 20.8558 11.8001 20.4577 11.8737 20.0212C12.5516 19.8878 13.2182 19.7731 13.8737 19.6773C14.5291 19.5815 15.1785 19.4992 15.8219 19.4303C16.4782 19.3544 17.1302 19.2948 17.7781 19.2514C18.426 19.2079 19.0608 19.1573 19.6825 19.0994C19.8229 19.7496 19.9594 20.3469 20.0922 20.8914C20.225 21.4359 20.3756 21.9708 20.544 22.4962C20.7363 23.0619 20.9468 23.5729 21.1756 24.0294C21.4046 24.4859 21.6832 24.8845 22.0114 25.2252C22.3072 25.5214 22.6408 25.7006 23.0122 25.7628C23.3836 25.8253 23.7214 25.7453 24.0257 25.5227C24.2783 25.3533 24.4074 25.0967 24.4131 24.7528C24.4184 24.4086 24.3249 23.9883 24.1326 23.4919C23.9707 23.1066 23.8244 22.7086 23.6939 22.2978C23.5634 21.887 23.4333 21.48 23.3036 21.0768C23.1848 20.6828 23.072 20.3137 22.9651 19.9696C22.8581 19.6257 22.7625 19.2834 22.6783 18.9426C22.9677 18.9247 23.2355 18.879 23.4817 18.8054C23.7279 18.7322 23.9384 18.6309 24.1133 18.5015C24.2991 18.3724 24.4465 18.2071 24.5554 18.0056C24.6646 17.8041 24.7192 17.5753 24.7192 17.3191C24.7192 17.0453 24.6452 16.8221 24.4973 16.6496C24.3493 16.4771 24.1544 16.3407 23.9124 16.2406C23.6924 16.1514 23.4359 16.0935 23.1432 16.0669C22.8507 16.0402 22.5252 16.0502 22.1667 16.0968C22.1106 15.5871 22.0545 15.0871 21.9983 14.5971C21.9422 14.1073 21.8775 13.6074 21.8042 13.0973C21.7307 12.6052 21.6561 12.1098 21.5806 11.611C21.5051 11.1122 21.4025 10.6224 21.2728 10.1416C21.1151 9.48916 20.8981 8.91745 20.6219 8.4265C20.3454 7.93555 20.0215 7.52189 19.6501 7.18553C19.3178 6.88939 18.9528 6.66447 18.5554 6.51076C18.1582 6.35734 17.7199 6.28063 17.2404 6.28063C16.6877 6.28063 16.1631 6.39136 15.6665 6.6128C15.17 6.83425 14.6841 7.15542 14.2088 7.57632C13.8462 7.90603 13.4996 8.2712 13.1693 8.67183C12.8389 9.07275 12.528 9.52476 12.2366 10.0279C12.055 9.85419 11.8866 9.7245 11.7314 9.63882C11.5759 9.55313 11.3912 9.51029 11.1773 9.51029C10.9227 9.51029 10.7036 9.58599 10.52 9.73738C10.3364 9.88878 10.2446 10.1225 10.2446 10.4386C10.2446 11.0266 10.2084 11.6145 10.136 12.2024C10.0636 12.7903 9.96589 13.3726 9.84295 13.9492C9.71326 14.6017 9.57502 15.2413 9.42821 15.868C9.2814 16.495 9.13783 17.1346 8.99747 17.7868C8.76449 17.8224 8.55298 17.8742 8.36295 17.9422C8.17291 18.0103 8.00449 18.0854 7.85768 18.1676C7.64379 18.2677 7.47958 18.4013 7.36505 18.5684C7.25081 18.7354 7.19369 18.9292 7.19369 19.1498C7.19369 19.3301 7.22709 19.4903 7.2939 19.6304C7.36098 19.7708 7.4647 19.8967 7.60505 20.0082C7.7454 20.1194 7.89754 20.1972 8.06147 20.2418C8.22568 20.2864 8.41249 20.3175 8.62189 20.3352C8.58316 20.7161 8.5513 21.0836 8.52632 21.4376C8.50161 21.7916 8.48926 22.1468 8.48926 22.5032C8.48926 22.9996 8.51775 23.4455 8.57474 23.841C8.632 24.2361 8.72323 24.5784 8.84842 24.8679C8.97389 25.1351 9.13754 25.3365 9.33937 25.4723C9.54119 25.6081 9.80618 25.6759 10.1343 25.6759ZM12.6867 16.8784C12.8768 16.157 13.0759 15.449 13.2842 14.7543C13.4925 14.0595 13.7478 13.3625 14.0501 12.6631C14.456 11.7145 14.9332 10.8996 15.4817 10.2185C16.0302 9.53706 16.5819 9.19635 17.1368 9.19635C17.5644 9.19635 17.8959 9.4702 18.1314 10.0179C18.3666 10.5656 18.5491 11.2759 18.6787 12.149C18.7846 12.7948 18.8682 13.4673 18.9297 14.1663C18.9912 14.8654 19.0608 15.5379 19.1385 16.1837C18.6074 16.2126 18.0648 16.2488 17.5107 16.2922C16.9569 16.3356 16.4199 16.3863 15.8998 16.4442C15.3684 16.5021 14.8328 16.5645 14.2931 16.6313C13.7533 16.6982 13.2178 16.7806 12.6867 16.8784ZM3.04463 32.5C2.19382 32.5 0 32.5 0 32.5C0 32.5 0 30.2376 0 29.3602V2.63978C0 1.76238 0 -0.5 0 -0.5C0 -0.5 2.19382 -0.5 3.04463 -0.5H28.9554C29.8062 -0.5 32 -0.5 32 -0.5C32 -0.5 32 1.76238 32 2.63978V29.3602C32 30.2376 32 32.5 32 32.5C32 32.5 29.8062 32.5 28.9554 32.5H3.04463Z" fill="#1C1C1C"/>
</g>
</g>
<path d="M52.52 16.4L56.04 8.8H59.66V23.5H57.66V10.5H57.46L53.96 18.1H50.9L47.38 10.5H47.2V23.5H45.2V8.8H48.82L52.32 16.4H52.52ZM67.9755 10.72C65.9755 10.72 64.0955 11.64 64.0955 12.76C64.0955 14.3 65.9755 14.68 68.1755 14.68C71.4155 14.68 74.3755 15.54 74.3755 19.08C74.3755 21.84 70.9755 23.56 67.8555 23.56C65.0955 23.56 62.9555 22.68 61.3155 21.24L62.4955 19.5C63.7955 20.78 65.5755 21.56 67.8355 21.56C70.5155 21.56 72.1555 20.3 72.1555 19.08C72.1555 17.3 70.5155 16.74 68.2755 16.74C65.3155 16.74 61.8755 16.08 61.8755 12.76C61.8755 9.9 65.5155 8.72 67.9755 8.72C69.7355 8.72 71.9355 9.16 73.5355 10.16V12.58H71.7755L71.5355 11.38C70.4955 10.9 69.1555 10.72 67.9755 10.72ZM89.4273 10.8H92.4273L95.0273 21.5H95.2273L99.0273 8.8H101.027L96.6273 23.5H93.6273L91.0273 12.8H90.8273L88.2273 23.5H85.2273L80.8273 8.8H82.8273L86.6273 21.5H86.8273L89.4273 10.8ZM107.165 12.24C110.265 12.24 112.965 14.78 112.965 17.88C112.965 21.02 110.265 23.56 107.165 23.56C104.045 23.56 101.345 21.02 101.345 17.88C101.345 14.78 104.045 12.24 107.165 12.24ZM107.165 14.24C105.125 14.24 103.345 15.88 103.345 17.88C103.345 19.92 105.125 21.56 107.165 21.56C109.205 21.56 110.965 19.92 110.965 17.88C110.965 15.88 109.205 14.24 107.165 14.24ZM116.148 23.5H114.148V12.3H115.748L116.048 13.94C117.188 13.02 118.668 12.24 119.948 12.24C121.548 12.24 122.548 12.66 122.988 12.92V15.48H121.328L121.188 14.36C121.048 14.26 120.628 14.1 119.948 14.1C118.548 14.1 117.428 14.84 116.148 15.92V23.5ZM129.488 23.56C126.328 23.56 123.968 21.02 123.968 17.9C123.968 14.78 126.328 12.24 129.488 12.24C130.508 12.24 131.568 12.6 132.528 13.16V7.84H134.528V23.5H132.928L132.688 22.38C131.748 23.06 130.588 23.56 129.488 23.56ZM129.488 21.56C130.568 21.56 131.508 21.16 132.528 20.46V15.16C131.508 14.52 130.588 14.24 129.488 14.24C127.468 14.24 125.968 15.86 125.968 17.9C125.968 19.9 127.448 21.56 129.488 21.56Z" fill="#1C1C1C"/>
<path d="M146.733 12.24C149.833 12.24 152.533 14.78 152.533 17.88C152.533 21.02 149.833 23.56 146.733 23.56C143.613 23.56 140.913 21.02 140.913 17.88C140.913 14.78 143.613 12.24 146.733 12.24ZM146.733 14.24C144.693 14.24 142.913 15.88 142.913 17.88C142.913 19.92 144.693 21.56 146.733 21.56C148.773 21.56 150.533 19.92 150.533 17.88C150.533 15.88 148.773 14.24 146.733 14.24ZM155.506 23.5H153.506V12.3H155.506V16.74H161.666V12.3H163.666V23.5H161.666V18.6H155.506V23.5ZM166.854 14.16V12.3H175.894V23.5H173.894V14.16H170.034L168.454 21.76C168.214 22.94 166.934 23.56 165.854 23.56L164.874 23.36V21.56H165.854C166.174 21.56 166.594 21.28 166.694 20.78L168.054 14.16H166.854ZM177.091 19.94C177.091 17.94 178.511 16.32 180.891 16.32C182.871 16.32 184.151 16.58 185.251 17.12V16.42C185.251 14.9 183.951 14.1 182.491 14.1C181.271 14.1 180.591 14.22 179.791 14.64L179.671 15.44H178.071V13.48C179.431 12.7 180.531 12.24 182.491 12.24C185.251 12.24 187.251 13.68 187.251 16.8V23.5H185.651L185.331 21.84C184.231 22.72 182.911 23.56 180.891 23.56C178.511 23.56 177.091 21.94 177.091 19.94ZM179.031 19.94C179.031 20.86 179.771 21.78 181.291 21.78C182.871 21.78 184.171 20.92 185.251 19.88V18.9C184.191 18.38 182.671 18.1 181.091 18.1C179.571 18.1 179.031 19.02 179.031 19.94ZM195.319 8.5H196.799C196.799 10 195.539 11.08 193.739 11.08C191.939 11.08 190.679 10 190.679 8.5H192.139C192.199 9.36 192.679 9.72 193.739 9.72C194.799 9.72 195.259 9.38 195.319 8.5ZM198.819 23.5H196.819V14.3H196.179L192.179 23.5H188.659V12.3H190.659V21.5H191.119L195.159 12.3H198.819V23.5ZM202.227 23.5H200.227V12.3H202.227V16.74H208.387V12.3H210.387V23.5H208.387V18.6H202.227V23.5Z" fill="#1C1C1C" fill-opacity="0.5"/>
<defs>
<clipPath id="clip0_49_2134">
<rect width="32" height="32" rx="8" fill="white"/>
</clipPath>
</defs>
</svg>
