<svg width="28" height="28" viewBox="0 0 28 28" fill="none" xmlns="http://www.w3.org/2000/svg">
<mask id="mask0_56_2263" style="mask-type:alpha" maskUnits="userSpaceOnUse" x="0" y="0" width="28" height="28">
<rect width="28" height="28" fill="#D9D9D9"/>
</mask>
<g mask="url(#mask0_56_2263)">
<path d="M13.998 2.91699C15.5308 2.917 16.9716 3.20743 18.3203 3.78906C19.6692 4.37084 20.8431 5.1609 21.8408 6.1582C22.8384 7.15546 23.6278 8.32859 24.21 9.67676C24.7919 11.025 25.083 12.4653 25.083 13.998C25.083 15.5308 24.7926 16.9716 24.2109 18.3203C23.6292 19.6692 22.8391 20.8431 21.8418 21.8408C20.8445 22.8384 19.6714 23.6278 18.3232 24.21C16.975 24.7919 15.5347 25.083 14.002 25.083C12.4692 25.083 11.0284 24.7926 9.67969 24.2109C8.33083 23.6292 7.15687 22.8391 6.15918 21.8418C5.1616 20.8445 4.37216 19.6714 3.79004 18.3232C3.20813 16.975 2.91699 15.5347 2.91699 14.002C2.917 12.4692 3.20743 11.0284 3.78906 9.67969C4.37084 8.33083 5.1609 7.15687 6.1582 6.15918C7.15546 5.1616 8.32859 4.37216 9.67676 3.79004C11.025 3.20813 12.4653 2.91699 13.998 2.91699ZM8.16699 17.5L14.0371 14L8.16699 10.5V17.5ZM15.1289 17.5L21 14L15.1289 10.5V17.5Z" fill="#F27138"/>
</g>
</svg>
